<svg width="48" height="48" viewBox="0 0 48 48" fill="none" xmlns="http://www.w3.org/2000/svg">
<mask id="mask0_43_53" style="mask-type:luminance" maskUnits="userSpaceOnUse" x="0" y="0" width="48" height="48">
<path d="M48 0H0V48H48V0Z" fill="white"/>
</mask>
<g mask="url(#mask0_43_53)">
<path d="M24 48C37.2548 48 48 37.2548 48 24C48 10.7452 37.2548 0 24 0C10.7452 0 0 10.7452 0 24C0 37.2548 10.7452 48 24 48Z" fill="#231D9A"/>
<path d="M26.3858 8.38687L23.9993 6.00037L21.6128 8.38687L23.9993 10.7734L26.3858 8.38687Z" fill="#FFD400"/>
<path d="M18.4265 10.1788L16.04 7.79221L13.6535 10.1788L16.04 12.5653L18.4265 10.1788Z" fill="#FFD400"/>
<path d="M12.5642 16.0408L10.1777 13.6543L7.79123 16.0408L10.1777 18.4274L12.5642 16.0408Z" fill="#FFD400"/>
<path d="M10.7742 24.0001L8.38771 21.6136L6.00119 24.0001L8.38771 26.3867L10.7742 24.0001Z" fill="#FFD400"/>
<path d="M12.5819 31.9886L10.1954 29.6021L7.80878 31.9886L10.1954 34.3751L12.5819 31.9886Z" fill="#FFD400"/>
<path d="M18.4009 37.8026L16.0144 35.416L13.6279 37.8026L16.0144 40.1891L18.4009 37.8026Z" fill="#FFD400"/>
<path d="M32.0665 40.1892L29.6799 37.8027L32.0665 35.4161L34.453 37.8027L32.0665 40.1892Z" fill="#FFD400"/>
<path d="M26.3858 39.6135L23.9993 37.227L21.6128 39.6135L23.9993 42L26.3858 39.6135Z" fill="#FFD400"/>
<path d="M40.2029 31.9604L37.8164 29.5739L35.4298 31.9604L37.8164 34.3469L40.2029 31.9604Z" fill="#FFD400"/>
<path d="M41.9996 24.0001L39.6131 21.6136L37.2266 24.0001L39.6131 26.3867L41.9996 24.0001Z" fill="#FFD400"/>
<path d="M40.1897 16.016L37.8032 13.6295L35.4167 16.016L37.8032 18.4025L40.1897 16.016Z" fill="#FFD400"/>
<path d="M34.3765 10.1956L31.99 7.80908L29.6035 10.1956L31.99 12.5822L34.3765 10.1956Z" fill="#FFD400"/>
</g>
</svg>
