<svg width="28" height="28" viewBox="0 0 28 28" fill="none" xmlns="http://www.w3.org/2000/svg">
<path d="M14 0C21.732 0 28 6.26801 28 14C28 21.732 21.732 28 14 28C6.26801 28 0 21.732 0 14C0 6.26801 6.26801 0 14 0ZM14 1.5C7.09644 1.5 1.5 7.09644 1.5 14C1.5 20.9036 7.09644 26.5 14 26.5C20.9036 26.5 26.5 20.9036 26.5 14C26.5 7.09644 20.9036 1.5 14 1.5ZM14.2334 4.66602C16.9591 4.66606 19.4118 5.83496 21.1182 7.69824L20.0566 8.75977C18.6228 7.16738 16.5449 6.16606 14.2334 6.16602C10.5683 6.16602 7.49063 8.68315 6.63574 12.083H17.7334V13.583H6.41113C6.40392 13.7208 6.4004 13.8595 6.40039 13.999C6.40039 14.3379 6.42114 14.6724 6.46289 15H17.7334V16.5H6.80762C7.85117 19.6 10.7816 21.833 14.2334 21.833C16.5449 21.833 18.6228 20.8316 20.0566 19.2393L21.1182 20.3008C19.4118 22.1641 16.9591 23.333 14.2334 23.333C9.94488 23.333 6.33137 20.4404 5.23828 16.5H3.7334V15H4.95312C4.91811 14.6714 4.90039 14.337 4.90039 13.999C4.9004 13.8596 4.90313 13.7209 4.90918 13.583H3.7334V12.083H5.09668C5.98054 7.8476 9.73558 4.66602 14.2334 4.66602Z" fill="#121511"/>
</svg>
