<svg width="44" height="44" viewBox="0 0 44 44" fill="none" xmlns="http://www.w3.org/2000/svg">
<path fill-rule="evenodd" clip-rule="evenodd" d="M37.7153 9.51502H40.8576C40.8576 11.715 40.8576 14.7803 38.3423 16.2745C38.8923 17.6092 39.2076 19.0245 39.2076 20.438C39.2076 23.0303 39.2076 26.6457 36.0653 29.0804V36.1515C36.0638 36.5681 35.8976 36.9672 35.6028 37.2615C35.3081 37.5559 34.9088 37.7217 34.4923 37.7227H29.7788C29.0711 37.7227 28.5211 37.2515 28.2864 36.6227L27.1076 33.011H18.3864L17.2076 36.6227C16.9711 37.2515 16.4211 37.7227 15.7153 37.7227H10.9999C10.5837 37.7212 10.1849 37.5552 9.89056 37.2609C9.59622 36.9666 9.43022 36.5678 9.42877 36.1515V29.0804C8.48644 28.4515 7.69994 27.8245 6.99227 26.7227H4.71344C4.29719 26.7212 3.8984 26.5552 3.60406 26.2609C3.30972 25.9666 3.14372 25.5678 3.14227 25.1515V17.2957C3.14372 16.8794 3.30972 16.4806 3.60406 16.1863C3.8984 15.892 4.29719 15.726 4.71344 15.7245H6.75761C7.35891 14.2203 8.30013 12.8756 9.50761 11.7957V7.86502C9.50761 7.31502 9.74227 6.84385 10.2153 6.52852C10.6076 6.21502 11.2364 6.21502 11.7076 6.44968L17.3653 9.27852C22.7864 7.07852 28.6769 7.39385 33.3153 10.3785C34.6878 11.219 35.8874 12.3135 36.8499 13.6033C37.5576 13.0533 37.7134 11.8763 37.7134 9.51868L37.7153 9.51502ZM32.9999 28.3745C32.9999 27.8245 33.2364 27.3533 33.7076 27.0399C35.8288 25.7034 36.1423 24.0534 36.0653 20.5187C36.0653 17.6899 34.3364 14.861 31.5076 13.0533C27.5788 10.5398 22.4711 10.3822 17.8364 12.5034C17.6328 12.6194 17.4025 12.6804 17.1682 12.6804C16.9338 12.6804 16.7035 12.6194 16.4999 12.5034L12.4923 10.4592V12.6592C12.4923 13.2092 12.2576 13.6803 11.7864 13.9957C11.7864 13.9957 9.89994 15.2515 9.27111 17.7669C9.19447 18.1043 9.00458 18.4053 8.73307 18.6197C8.46155 18.8342 8.12477 18.9493 7.77877 18.9457H6.20761V23.6592H7.77877C8.40761 23.6592 8.95761 23.9727 9.19227 24.5245C9.77344 25.6135 10.3564 26.0315 11.5573 26.8968L11.8634 27.1169C12.3364 27.3515 12.5711 27.8245 12.5711 28.3727V34.661H14.6134L15.7923 31.0457C16.0288 30.4169 16.5788 29.9457 17.2864 29.9457H28.2864C28.9923 29.9457 29.5423 30.4169 29.7788 31.0457L30.9576 34.6592H32.9999V28.3727V28.3745ZM16.8923 16.984C17.7668 16.1046 18.8079 15.4084 19.9547 14.9362C21.1015 14.464 22.3309 14.2253 23.5711 14.234C25.0653 14.234 26.5576 14.6264 27.8923 15.2552C28.7576 15.7264 29.5423 16.2764 30.2499 16.984L28.0499 19.184C27.5585 18.7732 27.0329 18.4052 26.4788 18.084C25.5798 17.6198 24.5829 17.3772 23.5711 17.3763C21.8423 17.3763 20.2711 18.0052 19.0923 19.184L16.8923 16.984Z" fill="black"/>
</svg>
