<svg width="39" height="39" viewBox="0 0 39 39" fill="none" xmlns="http://www.w3.org/2000/svg">
<path d="M37.3279 21.5914L20.3352 4.59711C20.2094 4.46516 20.0582 4.36011 19.8906 4.28834C19.723 4.21657 19.5426 4.17957 19.3602 4.17957C19.1779 4.17957 18.9975 4.21657 18.8299 4.28834C18.6623 4.36011 18.5111 4.46516 18.3852 4.59711L1.39262 21.5914L3.34262 23.5414L6.825 20.059V33.4295C6.82628 33.7984 6.97342 34.1519 7.23431 34.4128C7.4952 34.6737 7.84867 34.8208 8.21762 34.8221H30.5045C30.8734 34.8208 31.2269 34.6737 31.4878 34.4128C31.7487 34.1519 31.8958 33.7984 31.8971 33.4295V20.059L35.3779 23.5414L37.3279 21.5914ZM29.1102 32.0369H9.61025V17.2737L19.3602 7.52373L29.1102 17.2737V32.0369Z" fill="black"/>
</svg>
