<svg width="35" height="35" viewBox="0 0 35 35" fill="none" xmlns="http://www.w3.org/2000/svg">
<path fill-rule="evenodd" clip-rule="evenodd" d="M0 17.5008C0 7.87249 7.87551 0 17.5 0C27.1245 0 35 7.87249 35 17.5008C35 27.1258 27.1245 35 17.5 35C7.87551 35 0 27.1258 0 17.5026V17.5008ZM2.9178 17.5008C2.9178 25.5214 9.47988 32.0838 17.5 32.0838C25.5201 32.0838 32.0839 25.5214 32.0839 17.5008C32.0839 9.47863 25.5201 2.91624 17.5 2.91624C9.47988 2.91624 2.9195 9.47863 2.9195 17.5026L2.9178 17.5008ZM16.042 5.83248H18.9581V16.9156L24.3547 22.3108L22.3131 24.3525L16.4792 18.52C16.3423 18.3873 16.2332 18.2287 16.1582 18.0534C16.0831 17.8782 16.0436 17.6898 16.042 17.4991V5.83248Z" fill="black"/>
</svg>
